<svg width="2049" height="371" viewBox="0 0 2049 371" fill="none" xmlns="http://www.w3.org/2000/svg">
<path d="M223.488 140.928C223.488 144.512 222.891 148.352 221.696 152.448C220.672 156.373 219.136 160.213 217.088 163.968C215.04 167.552 212.565 170.88 209.664 173.952C206.763 176.853 203.605 179.072 200.192 180.608C205.995 183.168 210.944 186.496 215.04 190.592C219.307 194.688 222.805 199.211 225.536 204.16C228.267 209.109 230.315 214.4 231.68 220.032C233.045 225.493 233.728 231.04 233.728 236.672C233.728 245.717 232.021 254.421 228.608 262.784C225.195 270.976 220.075 278.229 213.248 284.544C206.592 291.029 198.229 296.149 188.16 299.904C178.261 303.659 166.741 305.536 153.6 305.536H75.008C66.4747 305.536 58.7093 304.171 51.712 301.44C44.8853 298.709 38.9973 294.869 34.048 289.92C29.2693 285.141 25.5147 279.253 22.784 272.256C20.0533 265.429 18.688 257.749 18.688 249.216V72.064H143.36C156.501 72.064 168.021 73.9413 177.92 77.696C187.989 81.4507 196.352 86.5707 203.008 93.056C209.835 99.3707 214.955 106.709 218.368 115.072C221.781 123.264 223.488 131.883 223.488 140.928ZM81.664 247.168C81.664 251.435 83.7973 253.568 88.064 253.568H138.752C148.309 253.568 155.989 251.947 161.792 248.704C167.765 245.291 170.752 239.573 170.752 231.552C170.752 223.531 167.765 217.899 161.792 214.656C155.989 211.413 148.309 209.792 138.752 209.792H81.664V247.168ZM128.512 167.808C138.069 167.808 145.749 166.187 151.552 162.944C157.525 159.701 160.512 154.069 160.512 146.048C160.512 138.027 157.525 132.395 151.552 129.152C145.749 125.739 138.069 124.032 128.512 124.032H81.664V167.808H128.512ZM346.698 263.552C355.573 263.552 362.655 261.333 367.946 256.896C373.407 252.459 376.138 246.571 376.138 239.232V139.136H435.018V241.792C435.018 252.203 432.885 261.675 428.618 270.208C424.351 278.571 418.378 285.739 410.698 291.712C403.018 297.856 393.717 302.549 382.794 305.792C372.042 309.035 360.01 310.656 346.698 310.656C333.386 310.656 321.269 309.035 310.346 305.792C299.594 302.549 290.378 297.856 282.698 291.712C275.018 285.739 269.045 278.571 264.778 270.208C260.511 261.675 258.378 252.203 258.378 241.792V139.136H317.258V239.232C317.258 246.571 319.903 252.459 325.194 256.896C330.655 261.333 337.823 263.552 346.698 263.552ZM626.098 305.536H567.73V204.672C567.73 197.504 565.767 191.787 561.842 187.52C558.087 183.253 553.053 181.12 546.738 181.12C540.423 181.12 535.303 183.253 531.378 187.52C527.623 191.787 525.746 197.504 525.746 204.672V305.536H467.378V195.456C467.378 185.899 469.17 177.365 472.754 169.856C476.509 162.176 481.714 155.691 488.37 150.4C495.197 145.109 503.303 141.099 512.69 138.368C522.077 135.467 532.573 134.016 544.178 134.016C553.906 134.016 563.293 135.723 572.338 139.136C581.383 142.549 589.575 147.243 596.914 153.216C604.253 147.243 612.445 142.549 621.49 139.136C630.535 135.723 639.922 134.016 649.65 134.016C661.085 134.016 671.495 135.467 680.882 138.368C690.439 141.099 698.546 145.109 705.202 150.4C712.029 155.691 717.234 162.176 720.818 169.856C724.573 177.365 726.45 185.899 726.45 195.456V305.536H668.082V204.672C668.082 197.504 666.119 191.787 662.194 187.52C658.439 183.253 653.405 181.12 647.09 181.12C640.775 181.12 635.655 183.253 631.73 187.52C627.975 191.787 626.098 197.504 626.098 204.672V305.536ZM831.076 134.016C842.681 134.016 852.836 135.979 861.54 139.904C870.244 143.659 877.583 148.864 883.556 155.52V139.136H939.876V305.536H883.556V289.152C877.583 295.808 870.244 301.013 861.54 304.768C852.836 308.693 842.681 310.656 831.076 310.656C819.641 310.656 809.06 308.352 799.332 303.744C789.775 299.136 781.497 292.821 774.5 284.8C767.503 276.779 762.041 267.392 758.116 256.64C754.191 245.888 752.228 234.453 752.228 222.336C752.228 210.048 754.191 198.613 758.116 188.032C762.041 177.28 767.503 167.893 774.5 159.872C781.497 151.851 789.775 145.536 799.332 140.928C809.06 136.32 819.641 134.016 831.076 134.016ZM846.18 263.808C852.324 263.808 857.615 262.699 862.052 260.48C866.489 258.091 870.073 255.019 872.804 251.264C875.705 247.339 877.753 242.901 878.948 237.952C880.313 233.003 880.996 227.883 880.996 222.592V221.056C880.825 215.936 880.057 210.987 878.692 206.208C877.327 201.429 875.193 197.248 872.292 193.664C869.561 189.909 865.977 186.923 861.54 184.704C857.273 182.485 852.153 181.376 846.18 181.376C840.036 181.376 834.745 182.571 830.308 184.96C826.041 187.179 822.457 190.251 819.556 194.176C816.655 197.931 814.521 202.283 813.156 207.232C811.791 212.181 811.108 217.301 811.108 222.592C811.108 227.883 811.791 233.003 813.156 237.952C814.521 242.901 816.655 247.339 819.556 251.264C822.457 255.019 826.041 258.091 830.308 260.48C834.745 262.699 840.036 263.808 846.18 263.808ZM1505.69 305.792V138.112H1564.57V305.792H1505.69ZM1504.15 98.688C1504.15 94.2507 1504.92 90.0693 1506.46 86.144C1508.16 82.2187 1510.38 78.8907 1513.11 76.16C1516.01 73.2587 1519.43 71.04 1523.35 69.504C1527.28 67.7973 1531.46 66.944 1535.9 66.944C1540.16 66.944 1544.17 67.7973 1547.93 69.504C1551.85 71.04 1555.18 73.2587 1557.91 76.16C1560.81 78.8907 1563.03 82.2187 1564.57 86.144C1566.27 90.0693 1567.13 94.2507 1567.13 98.688C1567.13 103.125 1566.27 107.221 1564.57 110.976C1563.03 114.731 1560.81 118.059 1557.91 120.96C1555.18 123.691 1551.85 125.909 1547.93 127.616C1544.17 129.152 1540.16 129.92 1535.9 129.92C1531.46 129.92 1527.28 129.152 1523.35 127.616C1519.43 125.909 1516.01 123.691 1513.11 120.96C1510.38 118.059 1508.16 114.731 1506.46 110.976C1504.92 107.221 1504.15 103.125 1504.15 98.688ZM1653.65 237.952C1655.7 246.315 1659.37 252.885 1664.66 257.664C1670.12 262.443 1676.86 264.832 1684.88 264.832C1691.71 264.832 1697.51 263.467 1702.29 260.736C1707.07 257.835 1710.23 253.824 1711.76 248.704H1773.46C1771.07 257.579 1767.4 265.771 1762.45 273.28C1757.67 280.96 1751.61 287.531 1744.27 292.992C1736.94 298.624 1728.32 302.976 1718.42 306.048C1708.69 309.291 1697.6 310.912 1685.14 310.912C1670.12 310.912 1656.81 308.608 1645.2 304C1633.77 299.392 1624.12 293.077 1616.27 285.056C1608.59 277.035 1602.79 267.733 1598.87 257.152C1594.94 246.4 1592.98 234.88 1592.98 222.592C1592.98 210.304 1594.86 198.784 1598.61 188.032C1602.54 177.28 1608.25 167.893 1615.76 159.872C1623.27 151.851 1632.66 145.536 1643.92 140.928C1655.36 136.32 1668.58 134.016 1683.6 134.016C1698.62 134.016 1711.76 136.32 1723.03 140.928C1734.46 145.536 1743.93 151.851 1751.44 159.872C1758.95 167.893 1764.58 177.28 1768.34 188.032C1772.26 198.784 1774.23 210.304 1774.23 222.592C1774.23 225.323 1774.06 227.968 1773.71 230.528C1773.54 232.917 1773.29 235.392 1772.95 237.952H1653.65ZM1683.6 178.56C1675.92 178.56 1669.69 180.693 1664.91 184.96C1660.31 189.056 1656.89 194.432 1654.67 201.088H1712.27C1710.06 194.432 1706.64 189.056 1702.03 184.96C1697.43 180.693 1691.28 178.56 1683.6 178.56ZM1845.95 138.112L1855.17 243.072H1856.96L1869.5 180.608C1872.58 165.419 1877.87 153.728 1885.38 145.536C1893.06 137.173 1903.3 132.992 1916.1 132.992C1928.9 132.992 1939.05 137.173 1946.56 145.536C1954.24 153.728 1959.62 165.419 1962.69 180.608L1975.23 243.072H1977.28L1986.24 138.112H2042.56L2031.04 247.936C2030.02 257.493 2028.22 266.112 2025.66 273.792C2023.1 281.643 2019.69 288.299 2015.42 293.76C2011.16 299.221 2006.04 303.403 2000.06 306.304C1994.09 309.376 1987.26 310.912 1979.58 310.912C1966.78 310.912 1956.03 306.731 1947.33 298.368C1938.79 290.176 1932.99 278.485 1929.92 263.296L1917.38 200.832H1915.07L1902.53 263.296C1899.46 278.485 1893.57 290.176 1884.86 298.368C1876.33 306.731 1865.66 310.912 1852.86 310.912C1845.18 310.912 1838.36 309.376 1832.38 306.304C1826.41 303.403 1821.29 299.221 1817.02 293.76C1812.76 288.299 1809.34 281.643 1806.78 273.792C1804.22 266.112 1802.43 257.493 1801.41 247.936L1789.89 138.112H1845.95Z" fill="white"/>
<path fill-rule="evenodd" clip-rule="evenodd" d="M1477.67 134.912C1487.18 127.009 1489.06 112.138 1481.85 101.703C1474.65 91.2586 1461.1 89.2065 1451.58 97.1101L1420.7 122.788C1398.52 67.8966 1445.39 -15 1415.37 3.00009C1385.36 21.0002 1359.71 86.2684 1357.41 102.721C1324.28 72.2829 1281.65 53.854 1235.11 53.8454C1169.51 53.8702 1111.55 90.3822 1077.21 145.786L1018.66 97.1101C1009.14 89.2065 995.585 91.2586 988.376 101.703C981.183 112.138 983.052 127.009 992.553 134.912L992.561 134.912C992.561 134.912 1137.89 323.5 1235.14 323.5C1332.39 323.5 1477.67 134.912 1477.67 134.912ZM1235.14 84.4058C1207.29 84.4058 1184.71 92.6076 1184.71 102.72C1184.71 112.832 1207.29 121.034 1235.14 121.034C1262.96 121.034 1285.54 112.832 1285.54 102.721C1285.54 92.6076 1262.96 84.4058 1235.14 84.4058ZM1144.06 135.806C1144.06 135.806 1120.5 159.697 1111.65 174.411L1235.11 277.036C1235.11 277.036 1367.41 189.124 1358.57 174.411C1349.73 159.697 1326.19 135.822 1326.19 135.822C1326.19 135.822 1279.47 172.433 1235.14 172.433C1190.78 172.433 1144.06 135.806 1144.06 135.806Z" fill="white"/>
</svg>